<?xml version="1.0" encoding="UTF-8" standalone="no"?>
<!-- Created with Inkscape (http://www.inkscape.org/) -->

<svg
   width="51.191002mm"
   height="20mm"
   viewBox="0 0 51.191002 20"
   version="1.1"
   id="svg5"
   inkscape:version="1.2.1 (0f2f062aeb, 2022-09-21, custom)"
   sodipodi:docname="logo-datarkos.svg"
   xmlns:inkscape="http://www.inkscape.org/namespaces/inkscape"
   xmlns:sodipodi="http://sodipodi.sourceforge.net/DTD/sodipodi-0.dtd"
   xmlns="http://www.w3.org/2000/svg"
   xmlns:svg="http://www.w3.org/2000/svg">
  <sodipodi:namedview
     id="namedview7"
     pagecolor="#ffffff"
     bordercolor="#000000"
     borderopacity="0.25"
     inkscape:showpageshadow="2"
     inkscape:pageopacity="0.0"
     inkscape:pagecheckerboard="0"
     inkscape:deskcolor="#d1d1d1"
     inkscape:document-units="mm"
     showgrid="false"
     inkscape:zoom="3.4344839"
     inkscape:cx="29.262038"
     inkscape:cy="148.93067"
     inkscape:window-width="3766"
     inkscape:window-height="2096"
     inkscape:window-x="0"
     inkscape:window-y="27"
     inkscape:window-maximized="1"
     inkscape:current-layer="g221" />
  <defs
     id="defs2" />
  <g
     inkscape:groupmode="layer"
     id="layer2"
     inkscape:label="bg-black"
     style="display:inline"
     sodipodi:insensitive="true">
    <rect
       style="fill:#000000;fill-opacity:1;stroke-width:0.759413"
       id="rect2058"
       width="53.191002"
       height="22"
       x="-1"
       y="-1"
       inkscape:label="bg"
       sodipodi:insensitive="true" />
  </g>
  <g
     inkscape:groupmode="layer"
     id="layer3"
     inkscape:label="no-margin-left"
     style="display:none"
     sodipodi:insensitive="true">
    <rect
       style="display:inline;fill:#000000;stroke:none;stroke-width:1.04489;stroke-dasharray:none;stroke-opacity:1"
       id="rect1834-1-9"
       width="47.191002"
       height="10"
       x="-0.81126302"
       y="5.2883019"
       inkscape:label="bg"
       sodipodi:insensitive="true" />
  </g>
  <g
     inkscape:groupmode="layer"
     id="g221"
     inkscape:label="no-margin-right"
     style="display:none"
     sodipodi:insensitive="true">
    <rect
       style="display:inline;fill:#000000;stroke:none;stroke-width:1.04489;stroke-dasharray:none;stroke-opacity:1"
       id="rect219"
       width="47.191002"
       height="10"
       x="5.1884737"
       y="5.2883019"
       inkscape:label="bg"
       sodipodi:insensitive="true" />
  </g>
  <g
     inkscape:label="logo"
     inkscape:groupmode="layer"
     id="layer1"
     transform="translate(-7.4325914,-25.936193)"
     sodipodi:insensitive="true">
    <g
       id="g1926"
       inkscape:label="logo"
       sodipodi:insensitive="true">
      <rect
         style="display:inline;fill:#000000;stroke:none;stroke-width:0.976213;stroke-dasharray:none;stroke-opacity:1"
         id="rect1834-1"
         width="41.191265"
         height="10"
         x="12.621065"
         y="31.224495"
         inkscape:label="bg"
         sodipodi:insensitive="true" />
      <g
         id="g1890"
         inkscape:label="txt"
         sodipodi:insensitive="true">
        <path
           d="m 14.466687,33.290275 v 6.023423 h 0.473269 v -6.023423 z m 1.634929,6.023423 q 0.877699,0 1.540276,-0.378615 0.671181,-0.378615 1.041191,-1.049797 0.378615,-0.679786 0.378615,-1.5833 0,-0.903513 -0.378615,-1.574694 -0.37001,-0.679787 -1.041191,-1.058402 -0.662577,-0.378615 -1.540276,-0.378615 h -1.376782 v 0.473269 h 1.376782 q 0.559318,0 1.015377,0.180703 0.464664,0.180702 0.79165,0.516293 0.326986,0.326986 0.499084,0.800255 0.180702,0.464664 0.180702,1.041191 0,0.576528 -0.180702,1.049797 -0.172098,0.464664 -0.499084,0.800255 -0.326986,0.326985 -0.79165,0.507688 -0.456059,0.180703 -1.015377,0.180703 h -1.376782 v 0.473269 z"
           style="font-weight:300;font-size:8.60489px;font-family:Jost;-inkscape-font-specification:'Jost Light';display:inline;fill:#ffffff;stroke-width:0.963475"
           id="path463"
           inkscape:label="D"
           sodipodi:insensitive="true" />
        <path
           id="path465-7"
           style="font-weight:300;font-size:8.60489px;font-family:Jost;-inkscape-font-specification:'Jost Light';display:inline;fill:#ff0000;stroke-width:0.963475"
           d="m 21.918326,33.057846 -2.658752,6.255949 h 0.5333 l 0.903304,-2.211234 0.05168,-0.103353 1.170471,-2.848405 0.227893,-0.557072 z"
           sodipodi:nodetypes="cccccccc"
           inkscape:label="A1-a"
           sodipodi:insensitive="true" />
        <path
           id="path465-7-2"
           style="font-weight:300;font-size:8.60489px;font-family:Jost;-inkscape-font-specification:'Jost Light';display:inline;fill:#4d4d4d;fill-opacity:1;stroke-width:0.963475"
           d="m 22.146069,33.594124 -0.227893,0.556555 1.187524,2.874243 0.04341,0.111621 0.894519,2.177128 h 0.533817 z"
           sodipodi:nodetypes="ccccccc"
           inkscape:label="A1-b"
           sodipodi:insensitive="true" />
        <path
           d="m 24.17297,33.737729 h 1.5833 v 5.575969 h 0.473269 v -5.575969 h 1.5833 V 33.290275 H 24.17297 Z"
           style="font-weight:300;font-size:8.60489px;font-family:Jost;-inkscape-font-specification:'Jost Light';display:inline;fill:#ffffff;stroke-width:0.963475"
           id="path467"
           inkscape:label="T"
           sodipodi:insensitive="true" />
        <path
           id="path465-7-26"
           style="font-weight:300;font-size:8.60489px;font-family:Jost;-inkscape-font-specification:'Jost Light';display:inline;fill:#ff0000;stroke-width:0.963475"
           d="m 21.91855,33.057777 -2.658752,6.255949 h 0.5333 l 0.903304,-2.211234 0.05168,-0.103353 1.170471,-2.848405 0.227893,-0.557072 z"
           sodipodi:nodetypes="cccccccc"
           transform="translate(7.8904029,6.9114583e-5)"
           inkscape:label="A2-a"
           sodipodi:insensitive="true" />
        <path
           id="path465-7-2-0"
           style="font-weight:300;font-size:8.60489px;font-family:Jost;-inkscape-font-specification:'Jost Light';display:inline;fill:#4d4d4d;fill-opacity:1;stroke-width:0.963475"
           d="m 22.146197,33.594054 -0.227893,0.556555 1.187524,2.874243 0.04341,0.111621 0.894519,2.177128 h 0.533817 z"
           sodipodi:nodetypes="ccccccc"
           transform="translate(7.890498,6.964375e-5)"
           inkscape:label="A2-b"
           sodipodi:insensitive="true" />
        <path
           d="m 34.292301,36.439665 1.996334,2.874033 h 0.585133 l -2.056569,-2.874033 z m -1.023982,-3.14939 v 6.023423 h 0.473269 v -6.023423 z m 0.249542,0.42164 h 1.127241 q 0.456059,0 0.808859,0.154888 0.352801,0.154888 0.550713,0.447454 0.206517,0.292566 0.206517,0.722811 0,0.430244 -0.197912,0.731415 -0.197912,0.292566 -0.559318,0.447454 -0.3528,0.146284 -0.808859,0.146284 h -1.127241 v 0.421639 h 1.127241 q 0.585132,0 1.041191,-0.197912 0.464664,-0.206518 0.731416,-0.602343 0.266751,-0.395824 0.266751,-0.946537 0,-0.559318 -0.266751,-0.946538 -0.266752,-0.38722 -0.731416,-0.593738 -0.456059,-0.206517 -1.041191,-0.206517 h -1.127241 z"
           style="font-weight:300;font-size:8.60489px;font-family:Jost;-inkscape-font-specification:'Jost Light';display:inline;fill:#ffffff;stroke-width:0.963475"
           id="path471"
           inkscape:label="R"
           sodipodi:insensitive="true" />
        <path
           d="m 37.751456,33.290275 v 6.023423 h 0.473269 v -6.023423 z m 2.968687,0 -2.633096,2.831009 2.76217,3.192414 h 0.602342 l -2.779379,-3.201019 2.650306,-2.822404 z"
           style="font-weight:300;font-size:8.60489px;font-family:Jost;-inkscape-font-specification:'Jost Light';display:inline;fill:#ffffff;stroke-width:0.963475"
           id="path473"
           inkscape:label="K"
           sodipodi:insensitive="true" />
        <path
           d="m 41.477361,36.301986 c 0,0.441718 0.07458,0.851885 0.223728,1.2305 0.149151,0.372878 0.358537,0.699864 0.628157,0.980957 0.269619,0.275357 0.585132,0.490479 0.946537,0.645367 0.367142,0.154888 0.765835,0.232332 1.19608,0.232332 0.430245,0 0.82607,-0.07744 1.187475,-0.232332 0.367142,-0.154888 0.685523,-0.37001 0.955143,-0.645367 0.26962,-0.281093 0.479006,-0.608079 0.628157,-0.980957 0.149151,-0.378615 0.223727,-0.788782 0.223727,-1.2305 0,-0.441717 -0.07458,-0.849015 -0.223727,-1.221894 -0.149151,-0.378615 -0.358537,-0.705601 -0.628157,-0.980957 -0.26962,-0.281093 -0.588001,-0.499084 -0.955143,-0.653972 -0.361405,-0.154888 -0.75723,-0.232332 -1.187475,-0.232332 -0.430245,0 -0.828938,0.07744 -1.19608,0.232332 -0.361405,0.154888 -0.676918,0.372879 -0.946537,0.653972 -0.26962,0.275356 -0.479006,0.602342 -0.628157,0.980957 -0.149152,0.372879 -0.223728,0.780177 -0.223728,1.221894 z"
           style="font-weight:300;font-size:8.60489px;font-family:Jost;-inkscape-font-specification:'Jost Light';display:inline;fill:#ff0000;stroke-width:0.963475"
           id="path475"
           sodipodi:nodetypes="scccscccscccscccs"
           inkscape:label="O"
           sodipodi:insensitive="true" />
        <path
           d="m 48.610801,37.57551 -0.38722,0.240937 q 0.146283,0.42164 0.413035,0.783045 0.266751,0.361405 0.662576,0.576528 0.395825,0.215122 0.920724,0.215122 0.37001,0 0.688391,-0.111864 0.318381,-0.120468 0.550713,-0.33559 0.240937,-0.223728 0.37001,-0.524899 0.137678,-0.301171 0.137678,-0.671181 0,-0.395825 -0.137678,-0.679786 -0.137678,-0.292567 -0.361405,-0.499084 -0.215123,-0.206517 -0.481874,-0.344196 -0.266752,-0.137678 -0.516294,-0.232332 -0.481873,-0.172097 -0.808859,-0.361405 -0.326986,-0.197913 -0.490479,-0.438849 -0.163493,-0.240937 -0.163493,-0.576528 0,-0.40443 0.283961,-0.671181 0.283962,-0.275357 0.80886,-0.275357 0.395825,0 0.662577,0.154888 0.266751,0.146283 0.438849,0.37001 0.180703,0.223727 0.275356,0.45606 l 0.413035,-0.232333 q -0.120468,-0.292566 -0.3528,-0.567922 -0.232332,-0.275357 -0.585133,-0.456059 -0.344195,-0.180703 -0.826069,-0.180703 -0.464664,0 -0.834675,0.189307 -0.37001,0.180703 -0.576527,0.516294 -0.206518,0.326986 -0.206518,0.75723 0,0.38722 0.146284,0.662577 0.154888,0.275356 0.395825,0.473269 0.240936,0.189307 0.516293,0.326985 0.283961,0.129074 0.542108,0.223728 0.344196,0.129073 0.653972,0.301171 0.318381,0.163493 0.516293,0.430244 0.197912,0.266752 0.197912,0.705601 0,0.499084 -0.33559,0.82607 -0.326986,0.318381 -0.912119,0.318381 -0.430244,0 -0.74002,-0.180703 -0.309776,-0.189308 -0.524898,-0.499084 -0.206518,-0.309776 -0.352801,-0.688391 z"
           style="font-weight:300;font-size:8.60489px;font-family:Jost;-inkscape-font-specification:'Jost Light';display:inline;fill:#ffffff;stroke-width:0.963475"
           id="path477"
           inkscape:label="S"
           sodipodi:insensitive="true" />
      </g>
    </g>
  </g>
</svg>
